<svg version="1.1" xmlns="http://www.w3.org/2000/svg" viewBox="0 0 512 512">
<path fill="#020202" opacity="1.000000" stroke="none" 
	d="
M109.000000,513.000000 
	C104.643097,513.000000 100.286201,513.000000 95.357460,512.643188 
	C73.347275,505.009613 65.161819,493.497467 65.162018,470.641083 
	C65.163216,331.867676 65.162575,193.094254 65.164360,54.320831 
	C65.164391,51.988667 65.120552,49.653957 65.209572,47.324730 
	C65.990532,26.889477 78.402351,9.987403 97.320686,3.512800 
	C99.570290,2.742897 101.774666,1.840814 104.000000,1.000000 
	C205.354233,1.000000 306.708466,1.000000 408.654968,1.376220 
	C410.864441,2.086394 412.509705,2.321110 414.094543,2.769273 
	C435.788086,8.903731 448.827942,27.013687 448.830170,51.110786 
	C448.843140,190.022598 448.837036,328.934418 448.836273,467.846222 
	C448.836273,470.677643 448.910156,473.512360 448.802338,476.339935 
	C448.154419,493.333313 437.851898,506.668152 421.839630,511.346710 
	C420.204956,511.824371 418.612183,512.445435 417.000000,513.000000 
	C412.643097,513.000000 408.286194,513.000000 403.349365,512.646729 
	C394.529266,510.063965 387.811829,505.538086 381.788177,499.485657 
	C346.103760,463.630707 310.297852,427.896545 274.478271,392.176483 
	C264.101837,381.828857 249.721573,381.950195 239.379349,392.284546 
	C205.829330,425.809296 172.212219,459.267456 138.794357,492.923431 
	C130.131470,501.648041 121.629753,510.303436 109.000000,513.000000 
M95.173561,310.499939 
	C95.171684,364.663879 95.169479,418.827820 95.170197,472.991760 
	C95.170212,474.157776 95.076965,475.342285 95.243538,476.486664 
	C95.980942,481.552612 100.352730,484.337006 105.141350,482.397461 
	C107.349937,481.502899 109.336769,479.750824 111.065788,478.027924 
	C146.942749,442.278503 182.748947,406.458160 218.610794,370.693573 
	C240.119781,349.242889 273.726379,349.126740 295.239716,370.554779 
	C331.358215,406.530212 367.368103,442.614746 403.397156,478.679840 
	C406.352081,481.637756 409.371552,484.119385 413.904358,482.469849 
	C418.620270,480.753632 418.868866,476.797485 418.853058,472.628876 
	C418.803223,459.463074 418.826935,446.296967 418.826874,433.130981 
	C418.826172,305.970612 418.828949,178.810257 418.823059,51.649887 
	C418.822388,37.311684 412.458038,31.002716 398.057495,31.002554 
	C303.895508,31.001497 209.733490,30.998905 115.571503,31.020245 
	C113.253510,31.020769 110.862076,30.975594 108.630547,31.493328 
	C99.687286,33.568241 95.180069,40.187637 95.178864,51.012699 
	C95.169304,137.175095 95.173546,223.337479 95.173561,310.499939 
z"/>
</svg>
